<mxfile host="app.diagrams.net" agent="Mozilla/5.0 (Windows NT 10.0; Win64; x64) AppleWebKit/537.36 (KHTML, like Gecko) Chrome/135.0.0.0 Safari/537.36 Edg/135.0.0.0" version="26.1.1">
  <diagram name="Page-1" id="-qZEQmCbCk1jy-cno3pZ">
    <mxGraphModel dx="1002" dy="565" grid="1" gridSize="10" guides="1" tooltips="1" connect="1" arrows="1" fold="1" page="1" pageScale="1" pageWidth="850" pageHeight="1100" math="0" shadow="0">
      <root>
        <mxCell id="0" />
        <mxCell id="1" parent="0" />
        <mxCell id="qKVABlJe6BEv9MXxqrbF-13" style="edgeStyle=orthogonalEdgeStyle;rounded=0;orthogonalLoop=1;jettySize=auto;html=1;entryX=0;entryY=0.5;entryDx=0;entryDy=0;" edge="1" parent="1" source="qKVABlJe6BEv9MXxqrbF-2" target="qKVABlJe6BEv9MXxqrbF-3">
          <mxGeometry relative="1" as="geometry" />
        </mxCell>
        <mxCell id="qKVABlJe6BEv9MXxqrbF-2" value="User" style="sketch=0;outlineConnect=0;fontColor=#232F3E;gradientColor=none;strokeColor=#232F3E;fillColor=#ffffff;dashed=0;verticalLabelPosition=bottom;verticalAlign=top;align=center;html=1;fontSize=12;fontStyle=0;aspect=fixed;shape=mxgraph.aws4.resourceIcon;resIcon=mxgraph.aws4.user;" vertex="1" parent="1">
          <mxGeometry x="20" y="180" width="60" height="60" as="geometry" />
        </mxCell>
        <mxCell id="qKVABlJe6BEv9MXxqrbF-19" style="edgeStyle=orthogonalEdgeStyle;rounded=0;orthogonalLoop=1;jettySize=auto;html=1;entryX=0;entryY=0.5;entryDx=0;entryDy=0;" edge="1" parent="1" source="qKVABlJe6BEv9MXxqrbF-3" target="qKVABlJe6BEv9MXxqrbF-12">
          <mxGeometry relative="1" as="geometry" />
        </mxCell>
        <mxCell id="qKVABlJe6BEv9MXxqrbF-3" value="Cloud&#xa;Storage" style="sketch=0;html=1;verticalAlign=top;labelPosition=center;verticalLabelPosition=bottom;align=center;spacingTop=-6;fontSize=11;fontStyle=1;fontColor=#999999;shape=image;aspect=fixed;imageAspect=0;image=data:image/svg+xml,PHN2ZyB4bWxucz0iaHR0cDovL3d3dy53My5vcmcvMjAwMC9zdmciIHhtbG5zOnY9Imh0dHBzOi8vdmVjdGEuaW8vbmFubyIgd2lkdGg9IjIwIiBoZWlnaHQ9IjE2IiB2aWV3Qm94PSIwIDAgMjAgMTYiPiYjeGE7CTxzdHlsZSB0eXBlPSJ0ZXh0L2NzcyI+JiN4YTsJLnN0MHtmaWxsOiM0Mjg1ZjQ7fSYjeGE7CS5zdDF7ZmlsbDojNjY5ZGY2O30mI3hhOwkuc3Qye2ZpbGw6I2FlY2JmYTt9JiN4YTsJLnN0M3tmaWxsOiNmZmY7fSYjeGE7CTwvc3R5bGU+JiN4YTsJPHBhdGggY2xhc3M9InN0MiIgZD0iTTAgMGgyMHY3SDB6Ii8+JiN4YTsJPHBhdGggY2xhc3M9InN0MSIgZD0iTTE4IDBoMnY3aC0yeiIvPiYjeGE7CTxwYXRoIGNsYXNzPSJzdDAiIGQ9Ik0xOCA3bDItN2gtMnoiLz4mI3hhOwk8cGF0aCBjbGFzcz0ic3QxIiBkPSJNMCAwaDJ2N0gweiIvPiYjeGE7CTxnIGNsYXNzPSJzdDMiPiYjeGE7CQk8cGF0aCBkPSJNNCAzaDZ2MUg0eiIvPiYjeGE7CQk8cmVjdCB4PSIxMyIgeT0iMiIgd2lkdGg9IjMiIGhlaWdodD0iMyIgcng9IjEuNSIvPiYjeGE7CTwvZz4mI3hhOwk8cGF0aCBjbGFzcz0ic3QyIiBkPSJNMCA5aDIwdjdIMHoiLz4mI3hhOwk8cGF0aCBjbGFzcz0ic3QxIiBkPSJNMTggOWgydjdoLTJ6Ii8+JiN4YTsJPHBhdGggY2xhc3M9InN0MCIgZD0iTTE4IDE2bDItN2gtMnoiLz4mI3hhOwk8cGF0aCBjbGFzcz0ic3QxIiBkPSJNMCA5aDJ2N0gweiIvPiYjeGE7CTxnIGNsYXNzPSJzdDMiPiYjeGE7CQk8cGF0aCBkPSJNNCAxMmg2djFINHoiLz4mI3hhOwkJPHJlY3QgeD0iMTMiIHk9IjExIiB3aWR0aD0iMyIgaGVpZ2h0PSIzIiByeD0iMS41Ii8+JiN4YTsJPC9nPiYjeGE7PC9zdmc+;" vertex="1" parent="1">
          <mxGeometry x="170" y="193" width="42" height="34" as="geometry" />
        </mxCell>
        <mxCell id="qKVABlJe6BEv9MXxqrbF-4" value="Document AI" style="sketch=0;html=1;verticalAlign=top;labelPosition=center;verticalLabelPosition=bottom;align=center;spacingTop=-6;fontSize=11;fontStyle=1;fontColor=#999999;shape=image;aspect=fixed;imageAspect=0;image=data:image/svg+xml,PHN2ZyB4bWxucz0iaHR0cDovL3d3dy53My5vcmcvMjAwMC9zdmciIGlkPSJzdmcyNDYzMyIgdmVyc2lvbj0iMS4xIiB2aWV3Qm94PSIwIDAgMjA4LjcxMzM2IDI1OC45NjYwOSIgaGVpZ2h0PSIyNTguOTY2MDltbSIgd2lkdGg9IjIwOC43MTMzNm1tIj4mI3hhOyAgJiN4YTsgIDxkZWZzIGlkPSJkZWZzMjQ2MzAiLz4mI3hhOyAgPGcgdHJhbnNmb3JtPSJ0cmFuc2xhdGUoLTMuMzk0NjI0OCwtMTcuODEwMjgyKSIgaWQ9ImxheWVyMSI+JiN4YTsgICAgPHBhdGggdHJhbnNmb3JtPSJzY2FsZSgwLjI2NDU4MzMzKSIgZD0ibSAxMTIuNDcwNyw2Ny4zMTQ0NTMgYyAtNTguMzI5NTUyLDAgLTk5LjY0MDYyMiw0MS4wMzc2NDcgLTk5LjY0MDYyMiwxMDYuODUxNTY3IHYgNzc0LjE4NzUgYyAwLDU2LjMxMzc4IDQzLjI2NjU5Niw5Ny43MzA0OCAxMDEuMjc3MzQyLDk3LjczMDQ4IEggNDEwLjA5OTYxIFYgOTQ3LjUwNTg2IEggMTA5LjM4MjgxIFYgMTYzLjIxODc1IGggMzAwLjcxNjggViA2Ny4zMTQ0NTMgWiBtIDQ3MS43MjA3MSwyOC43NzczNDQgYSA2OS44ODQ0ODksNjkuODg0NDg5IDAgMCAwIC02OS44ODQ3Nyw2OS44ODQ3NjMgNjkuODg0NDg5LDY5Ljg4NDQ4OSAwIDAgMCA0OS4wNjQ0NSw2Ni43MDExNyB2IDc2Ljg4ODY4IGMgMCwzMi4xNzM1NCAtMy4wMDI0OSw1NC4yMDgzNiAtOS4wMDU4Niw2NC4zNDc2NSAtNi4wMDMzNiwxMC4xMzkzIC0xNC4wMTI0MiwxNS4yOTY4OCAtNDIuMjM4MjgsMTUuMjk2ODggaCAtNDkuMTQyNTcgdiAzOS45OTQxNCBoIDQ5LjE0MjU3IGMgMzUuMzA1MSwwIDYyLjkxMzc2LC0xMS43MTI1MiA3Ni42NTIzNSwtMzQuOTE2MDIgMTMuNzM4NTgsLTIzLjIwMzU1IDE0LjU5Mzc1LC01MC45ODc2OCAxNC41OTM3NSwtODQuNzIyNjUgViAyMzMuMTM0NzcgQSA2OS44ODQ0ODksNjkuODg0NDg5IDAgMCAwIDY1NC4wNzQyMiwxNjUuOTc2NTYgNjkuODg0NDg5LDY5Ljg4NDQ4OSAwIDAgMCA1ODQuMTkxNDEsOTYuMDkxNzk3IFogTSAyMDkuMTA3NDIsMzU5Ljc5Njg4IHYgOTYuNjM2NzEgaCAyMDAuOTE3OTcgdiAtOTYuNjM2NzEgeiBtIDUyMi42Nzc3NCwyOC42OTMzNSBhIDY5Ljg4NDQ4OSw2OS44ODQ0ODkgMCAwIDAgLTY5Ljg4NDc3LDY5Ljg4NDc3IDY5Ljg4NDQ4OSw2OS44ODQ0ODkgMCAwIDAgNDQuNTMzMiw2NS4xMTkxNCBjIC0wLjgyMjcyLDI4LjAzMTA0IC04LjIxNjMsNDAuMDcxOTggLTIwLjgxODM2LDQ4LjQ3NjU2IC0xMy4zODU1Myw4LjkyNzE3IC0zNy43MTQ3NCwxMy4zOTg0NCAtNzEuMjc5MjksMTMuMzk4NDQgSCA0NjMuNjY0MDYgdiAzOS45OTQxNCBoIDE1MC42NzE4OCBjIDM2LjUyOTQzLDAgNjguMjkxOTIsLTMuMzI0MjMgOTMuNDY4NzUsLTIwLjExNTIzIDIzLjMyMzQ4LC0xNS41NTQ5NiAzNi42MzkxNywtNDIuOTc3MzEgMzguNDc0NjEsLTc4LjU0MTAyIEEgNjkuODg0NDg5LDY5Ljg4NDQ4OSAwIDAgMCA4MDEuNjY3OTcsNDU4LjM3NSA2OS44ODQ0ODksNjkuODg0NDg5IDAgMCAwIDczMS43ODUxNiwzODguNDkwMjMgWiBNIDIwOS4xMDc0Miw1NTYuNDgyNDIgdiA5Ni42MzY3MiBoIDIwMC45MTc5NyB2IC05Ni42MzY3MiB6IG0gMCwxOTYuNjg3NSB2IDk2LjYzNjcyIGggMjAwLjkxNzk3IHYgLTk2LjYzNjcyIHogbSAyNTQuOTc2NTYsMjcuNTQ2ODggdiAzOS45OTQxNCBoIDk4LjU5OTYxIGMgMzIuMzE0MjUsMCA1NS40NDQxMiwyLjUyNzk1IDY2LjIzMDQ3LDguMDAxOTUgNS4zOTMxNiwyLjczNzAyIDguMDg0ODgsNS4zNTUzMiAxMC41NDI5NywxMC4yMzI0MiAyLjQ1ODA5LDQuODc3MTQgNC40MDYyNSwxMi43Nzc2OCA0LjQwNjI1LDI1LjAzMTI1IHYgMTkuODE4MzYgYSA2OS44ODQ0ODksNjkuODg0NDg5IDAgMCAwIC00OS43MjI2Niw2Ni44OTY0OSA2OS44ODQ0ODksNjkuODg0NDg5IDAgMCAwIDY5Ljg4NDc3LDY5Ljg4NDc5IDY5Ljg4NDQ4OSw2OS44ODQ0ODkgMCAwIDAgNjkuODg0NzcsLTY5Ljg4NDc5IDY5Ljg4NDQ4OSw2OS44ODQ0ODkgMCAwIDAgLTUwLjA0NDkzLC02Ni45ODI0MyB2IC0xOS43MzI0MiBjIDAsLTE2LjM2ODgzIC0yLjQ2MjIsLTMwLjY4NTUgLTguNjg3NSwtNDMuMDM3MTEgLTYuMjI1MjYsLTEyLjM1MTYxIC0xNi40OTAxNywtMjEuOTczMDIgLTI4LjE2MjExLC0yNy44OTY0OCBDIDYyMy42NzE3NSw3ODEuMTk2MDggNTk2LjIxNjcsNzgwLjcxNjggNTYyLjY4MzU5LDc4MC43MTY4IFoiIHN0eWxlPSJjb2xvcjojMDAwMDAwO29wYWNpdHk6MTtmaWxsOiM1OTg2ZjI7ZmlsbC1vcGFjaXR5OjE7c3Ryb2tlLXdpZHRoOjM5Ljk5OTk7LWlua3NjYXBlLXN0cm9rZTpub25lIiBpZD0icGF0aDI0NzYyIi8+JiN4YTsgIDwvZz4mI3hhOzwvc3ZnPg==;" vertex="1" parent="1">
          <mxGeometry x="818" y="130" width="34" height="42" as="geometry" />
        </mxCell>
        <mxCell id="qKVABlJe6BEv9MXxqrbF-8" value="" style="strokeColor=#dddddd;shadow=1;strokeWidth=1;rounded=1;absoluteArcSize=1;arcSize=2;" vertex="1" parent="1">
          <mxGeometry x="770" y="250" width="130" height="60" as="geometry" />
        </mxCell>
        <mxCell id="qKVABlJe6BEv9MXxqrbF-9" value="BigQuery" style="editableCssRules=.*;html=1;fontColor=#999999;shape=image;verticalLabelPosition=middle;verticalAlign=middle;labelPosition=right;align=left;spacingLeft=20;part=1;points=[];imageAspect=0;image=data:image/svg+xml,PHN2ZyB4bWxucz0iaHR0cDovL3d3dy53My5vcmcvMjAwMC9zdmciIHhtbG5zOnY9Imh0dHBzOi8vdmVjdGEuaW8vbmFubyIgd2lkdGg9IjIwLjAwMTA0NTIyNzA1MDc4IiBoZWlnaHQ9IjIwLjAwMTA0NTIyNzA1MDc4IiBmaWxsLXJ1bGU9ImV2ZW5vZGQiIHZpZXdCb3g9IjAgMCAyMC4wMDEwNDUyMjcwNTA3OCAyMC4wMDEwNDUyMjcwNTA3OCI+JiN4YTsJPHN0eWxlIHR5cGU9InRleHQvY3NzIj4mI3hhOwkuc3Qwe2ZpbGw6I2FlY2JmYTt9JiN4YTsJLnN0MXtmaWxsOiM2NjlkZjY7fSYjeGE7CS5zdDJ7ZmlsbDojNDI4NWY0O30mI3hhOwk8L3N0eWxlPiYjeGE7CTxwYXRoIGNsYXNzPSJzdDAiIGQ9Ik00LjczIDguODN2Mi42M2E0LjkxIDQuOTEgMCAwIDAgMS43MSAxLjc0VjguODN6Ii8+JiN4YTsJPHBhdGggY2xhc3M9InN0MSIgZD0iTTcuODkgNi40MXY3LjUzQTcuNjIgNy42MiAwIDAgMCA5IDE0YTggOCAwIDAgMCAxIDBWNi40MXoiLz4mI3hhOwk8cGF0aCBjbGFzcz0ic3QwIiBkPSJNMTEuNjQgOS44NnYzLjI5YTUgNSAwIDAgMCAxLjctMS44MlY5Ljg2eiIvPiYjeGE7CTxwYXRoIGNsYXNzPSJzdDIiIGQ9Ik0xNS43NCAxNC4zMmwtMS40MiAxLjQyYS40Mi40MiAwIDAgMCAwIC42bDMuNTQgMy41NGEuNDIuNDIgMCAwIDAgLjU5IDBsMS40My0xLjQzYS40Mi40MiAwIDAgMCAwLS41OWwtMy41NC0zLjU0YS40Mi40MiAwIDAgMC0uNiAwIi8+JiN4YTsJPHBhdGggY2xhc3M9InN0MSIgZD0iTTkgMGE5IDkgMCAxIDAgMCAxOEE5IDkgMCAxIDAgOSAwbTAgMTUuNjlhNi42OCA2LjY4IDAgMCAxIC4wMDctMTMuMzYgNi42OCA2LjY4IDAgMCAxIDQuNzI3IDExLjQwM0E2LjY4IDYuNjggMCAwIDEgOSAxNS42OSIvPiYjeGE7PC9zdmc+;" vertex="1" parent="qKVABlJe6BEv9MXxqrbF-8">
          <mxGeometry width="30" height="30" relative="1" as="geometry">
            <mxPoint x="15" y="15" as="offset" />
          </mxGeometry>
        </mxCell>
        <mxCell id="qKVABlJe6BEv9MXxqrbF-10" value="" style="strokeColor=#dddddd;shadow=1;strokeWidth=1;rounded=1;absoluteArcSize=1;arcSize=2;" vertex="1" parent="1">
          <mxGeometry x="480" y="180" width="130" height="60" as="geometry" />
        </mxCell>
        <mxCell id="qKVABlJe6BEv9MXxqrbF-11" value="Cloud&#xa;Functions" style="editableCssRules=.*;html=1;fontColor=#999999;shape=image;verticalLabelPosition=middle;verticalAlign=middle;labelPosition=right;align=left;spacingLeft=20;part=1;points=[];imageAspect=0;image=data:image/svg+xml,PHN2ZyB4bWxucz0iaHR0cDovL3d3dy53My5vcmcvMjAwMC9zdmciIHhtbG5zOnY9Imh0dHBzOi8vdmVjdGEuaW8vbmFubyIgd2lkdGg9IjIwIiBoZWlnaHQ9IjE5Ljk4OTk5OTc3MTExODE2NCIgdmlld0JveD0iMCAwIDIwIDE5Ljk4OTk5OTc3MTExODE2NCI+JiN4YTsJPHN0eWxlIHR5cGU9InRleHQvY3NzIj4mI3hhOwkuc3Qwe2ZpbGw6IzQyODVmNDt9JiN4YTsJLnN0MXtmaWxsOiM2NjlkZjY7fSYjeGE7CS5zdDJ7ZmlsbDojYWVjYmZhO30mI3hhOwk8L3N0eWxlPiYjeGE7CTxwYXRoIGNsYXNzPSJzdDEiIGQ9Ik0zIDMuOTlMMCA2LjQydjcuMTNsMyAyLjQ0eiIvPiYjeGE7CTxwYXRoIGNsYXNzPSJzdDAiIGQ9Ik0zIDMuOTlsLTMgNCAzLTJ6bS0zIDhsMyA0di0yeiIvPiYjeGE7CTxwYXRoIGNsYXNzPSJzdDIiIGQ9Ik0wIDE1Ljk5bDQgNCAyLTItNi02em0uMDEtOEw1Ljk5IDJsLTItMkwwIDMuOTl6Ii8+JiN4YTsJPHBhdGggY2xhc3M9InN0MSIgZD0iTTE3IDE2bDMtMi40MlY2LjQ0TDE3IDR6Ii8+JiN4YTsJPHBhdGggY2xhc3M9InN0MCIgZD0iTTE3IDE2bDMtNC0zIDJ6bTMtOGwtMy00djJ6Ii8+JiN4YTsJPGcgY2xhc3M9InN0MiI+JiN4YTsJCTxwYXRoIGQ9Ik0yMCA0bC00LTQtMiAyIDYgNnptLS4wMSA4bC01Ljk4IDUuOTkgMiAyTDIwIDE2eiIvPiYjeGE7CQk8Y2lyY2xlIGN4PSI2IiBjeT0iOS45OSIgcj0iMSIvPiYjeGE7CQk8Y2lyY2xlIGN4PSIxMCIgY3k9IjkuOTkiIHI9IjEiLz4mI3hhOwkJPGNpcmNsZSBjeD0iMTMuOTkiIGN5PSI5Ljk5IiByPSIxIi8+JiN4YTsJPC9nPiYjeGE7PC9zdmc+;" vertex="1" parent="qKVABlJe6BEv9MXxqrbF-10">
          <mxGeometry width="30" height="24" relative="1" as="geometry">
            <mxPoint x="15" y="18" as="offset" />
          </mxGeometry>
        </mxCell>
        <mxCell id="qKVABlJe6BEv9MXxqrbF-14" style="edgeStyle=orthogonalEdgeStyle;rounded=0;orthogonalLoop=1;jettySize=auto;html=1;exitX=1;exitY=0.5;exitDx=0;exitDy=0;" edge="1" parent="1" source="qKVABlJe6BEv9MXxqrbF-12" target="qKVABlJe6BEv9MXxqrbF-10">
          <mxGeometry relative="1" as="geometry" />
        </mxCell>
        <mxCell id="qKVABlJe6BEv9MXxqrbF-12" value="Eventarc" style="sketch=0;html=1;verticalAlign=top;labelPosition=center;verticalLabelPosition=bottom;align=center;spacingTop=-6;fontSize=11;fontStyle=1;fontColor=#999999;shape=image;aspect=fixed;imageAspect=0;image=data:image/svg+xml,PHN2ZyB4bWxucz0iaHR0cDovL3d3dy53My5vcmcvMjAwMC9zdmciIGlkPSJzdmc4MzgiIHZlcnNpb249IjEuMSIgdmlld0JveD0iMCAwIDE2NC4zNDc1OCAxNjQuMzQ3NiIgaGVpZ2h0PSIxNjQuMzQ3Nm1tIiB3aWR0aD0iMTY0LjM0NzU4bW0iPiYjeGE7ICA8cGF0aCBkPSJtIDEyMy43NzczOCwzMy41NDQ5NDIgLTg5LjgwODYwMSw4OS4zMjYxNjggOC4xMDkzNzUsOC4xNTQzIDg5LjgwODU5NiwtODkuMzI2MTY3IHogTSAxNC41MDgxOTcsMzUuNTkxNzMzIEMgNS4zNjEyNTIsNDguODM4NjEzIDAsNjQuODkxMTUzIDAsODIuMTczNzkzIGMgMWUtNiw5LjI1NTM0IDEuNTYwNDAxLDE4LjE0NzQzNyA0LjM5MzUzLDI2LjQ1NTIyNyAzLjA2OTg2MywtMi40MzY5NiA2LjUxMjg4MywtNC4zNjI1NSAxMC4xOTYyNzcsLTUuNzAyNDkgLTIuMDA0OTk2LC02LjU2MDIwNyAtMy4wODk3MzIsLTEzLjUyNjU2NyAtMy4wODk3MzIsLTIwLjc1MjczNyAwLC0xNC45NzI0NyA0LjYyOTY1LC0yOC44NDEyNyAxMi41Mzg3NywtNDAuMjU2MjEgeiBNIDQxLjUwNzc0NSwyNC4zMjQ5NjYgYyAxMS40OTIxMTEsLTguMDgzNDczIDI1LjUxMzkxOSwtMTIuODI0ODk0IDQwLjY2NjA1MSwtMTIuODI0ODk0IDcuMjIxOTksMCAxNC4xODYwMSwxLjA3OTcyMiAyMC43NDI5MjQsMy4wODI0OTkgMS4zOTExMSwtMy42ODE2MDggMy4zNjk2LC03LjExMzQ3NCA1Ljg1ODU1LC0xMC4xNjIxNyBDIDEwMC40MjgzMywxLjU1NzMzMiA5MS40ODAwOTYsMCA4Mi4xNzM3OTYsMCA2NC42NzY0MzcsMCA0OC40Mzk5NCw1LjQ5NTI5MiAzNS4wOTkzMiwxNC44NTA4NjEgWiBNIDEyMi43OTAzNiwxNDAuMDU3NCBjIC0xMS40ODI4Niw4LjA2MjMgLTI1LjQ4NjE3NCwxMi43OTAxMiAtNDAuNjE2NTY0LDEyLjc5MDExIC03LjI4NTE4OSwwIC0xNC4zMDc5NSwtMS4wOTg1OCAtMjAuOTE1MDAzLC0zLjEzNTIxIC0xLjM0OTc5LDMuNjc4NzYgLTMuMjg0MjYyLDcuMTE1NjUgLTUuNzI4ODUxLDEwLjE3ODE5IDguMzYxNTE2LDIuODc0MjYgMTcuMzE4NTU5LDQuNDU3MDkgMjYuNjQzODU0LDQuNDU3MSAxNy40OTQ3OSwwIDMzLjcyOTA5NCwtNS40OTM2OCA0Ny4wNjg2MDQsLTE0Ljg0Njc0IHogbSAyNy4xMzQyMiwtMTEuNDI1MTUgYyA5LjA5NTAzLC0xMy4yMjMwNyAxNC40MjMwMSwtMjkuMjI5NTI3IDE0LjQyMzAxLC00Ni40NTg0NTcgMCwtOS4yNTU0MSAtMS41MzkxNywtMTguMTU3MiAtNC4zNzIzNCwtMjYuNDY1MDUgLTMuMDUxMzIsMi40ODkxOCAtNi40ODYwMiw0LjQ2NzE3IC0xMC4xNzA0NCw1Ljg1NzAxIDEuOTc2NTMsNi41MTc2NSAzLjA0MjcxLDEzLjQzNTM4IDMuMDQyNzEsMjAuNjA4MDQgMCwxNS4wODgxNCAtNC43MDE0NSwyOS4wNTU0NzcgLTEyLjcyMjY0LDQwLjUyMDI5NyB6IiBzdHlsZT0iY29sb3I6IzAwMDAwMDtvcGFjaXR5OjE7ZmlsbDojNDI4NWY0O2ZpbGwtb3BhY2l0eToxOy1pbmtzY2FwZS1zdHJva2U6bm9uZSIvPiYjeGE7ICA8cGF0aCBkPSJNIDEwNi4wMDc4LDgyLjY0Njc2MyBBIDIzLjc1ODk3NiwyMy43NTg5NzYgMCAwIDEgODIuMjQ4ODE2LDEwNi40MDU3NCAyMy43NTg5NzYsMjMuNzU4OTc2IDAgMCAxIDU4LjQ4OTg0LDgyLjY0Njc2MyAyMy43NTg5NzYsMjMuNzU4OTc2IDAgMCAxIDgyLjI0ODgxNiw1OC44ODc3ODMgMjMuNzU4OTc2LDIzLjc1ODk3NiAwIDAgMSAxMDYuMDA3OCw4Mi42NDY3NjMgWiIgc3R5bGU9ImNvbG9yOiMwMDAwMDA7b3BhY2l0eToxO2ZpbGw6IzY2OWRmNjtmaWxsLW9wYWNpdHk6MTtzdHJva2Utd2lkdGg6MTEuNTtzdHJva2UtbGluZWNhcDpyb3VuZDstaW5rc2NhcGUtc3Ryb2tlOm5vbmUiLz4mI3hhOyAgPHBhdGggZD0ibSAxMzYuODc4OTQsMTE3LjEzNDc4IGMgLTExLjA1Nzc1LDAgLTIwLjE0NDU0LDkuMDg4NzQgLTIwLjE0NDUzLDIwLjE0NjQ5IDAsMTEuMDU3NzQgOS4wODY3OSwyMC4xNDQ1MyAyMC4xNDQ1MywyMC4xNDQ1MyAxMS4wNTc3MywwIDIwLjE0NjQ4LC05LjA4NjggMjAuMTQ2NDgsLTIwLjE0NDUzIDFlLTUsLTExLjA1Nzc0IC05LjA4ODc0LC0yMC4xNDY0OCAtMjAuMTQ2NDgsLTIwLjE0NjQ5IHogbSAwLDExLjUgYyA0Ljg0MjY4LDAgOC42NDY0OSwzLjgwMzggOC42NDY0OCw4LjY0NjQ5IDAsNC44NDI2OCAtMy44MDM4LDguNjQ0NTMgLTguNjQ2NDgsOC42NDQ1MyAtNC44NDI2OCwwIC04LjY0NDUzLC0zLjgwMTg1IC04LjY0NDUzLC04LjY0NDUzIDAsLTQuODQyNjkgMy44MDE4NCwtOC42NDY0OSA4LjY0NDUzLC04LjY0NjQ5IHogTSAyNy4wOTU3MzIsMTE2Ljk3NDYzIGMgLTExLjA1NzczNiwwIC0yMC4xNDQ1MjgsOS4wODY3OSAtMjAuMTQ0NTMxLDIwLjE0NDUzIC01ZS02LDExLjA1Nzc0IDkuMDg2NzksMjAuMTQ2NDggMjAuMTQ0NTMxLDIwLjE0NjQ4IDExLjA1Nzc0MiwwIDIwLjE0NjQ4OSwtOS4wODg3NCAyMC4xNDY0ODUsLTIwLjE0NjQ4IC0zZS02LC0xMS4wNTc3NCAtOS4wODg3NDgsLTIwLjE0NDUzIC0yMC4xNDY0ODUsLTIwLjE0NDUzIHogbSAwLDExLjUgYyA0Ljg0MjY4MiwwIDguNjQ2NDgzLDMuODAxODUgOC42NDY0ODUsOC42NDQ1MyAyZS02LDQuODQyNjggLTMuODAzOCw4LjY0NjQ4IC04LjY0NjQ4NSw4LjY0NjQ4IC00Ljg0MjY4NCwwIC04LjY0NDUzMywtMy44MDM4IC04LjY0NDUzMSwtOC42NDY0OCAxMGUtNywtNC44NDI2OCAzLjgwMTg0OSwtOC42NDQ1MyA4LjY0NDUzMSwtOC42NDQ1MyB6IE0gMTM2Ljk0MTQ0LDcuMzQzNzcgYyAtMTEuMDU3NzQsM2UtNiAtMjAuMTQ2NDksOS4wODY3OTUgLTIwLjE0NjQ5LDIwLjE0NDUzMSAwLDExLjA1Nzc0MiA5LjA4ODc1LDIwLjE0NjQ4MiAyMC4xNDY0OSwyMC4xNDY0ODIgMTEuMDU3NzQsMWUtNSAyMC4xNDQ1MywtOS4wODg3NCAyMC4xNDQ1MywtMjAuMTQ2NDgyIDAsLTExLjA1Nzc0MSAtOS4wODY3OSwtMjAuMTQ0NTM2IC0yMC4xNDQ1MywtMjAuMTQ0NTMxIHogbSAwLDExLjUgYyA0Ljg0MjY4LC0yZS02IDguNjQ0NTMsMy44MDE4NDcgOC42NDQ1Myw4LjY0NDUzMSAwLDQuODQyNjg1IC0zLjgwMTg1LDguNjQ2NDgyIC04LjY0NDUzLDguNjQ2NDgyIC00Ljg0MjY4LDAgLTguNjQ2NDksLTMuODAzNzk5IC04LjY0NjQ5LC04LjY0NjQ4MiAwLC00Ljg0MjY4MiAzLjgwMzgxLC04LjY0NDUzIDguNjQ2NDksLTguNjQ0NTMxIHogTSAyNy4wODk4NzMsNy40Mzc1MiBjIC0xMS4wNTc3MzksLTFlLTYgLTIwLjE0NDUzMSw5LjA4Njc5MiAtMjAuMTQ0NTMxLDIwLjE0NDUzMSAyZS02LDExLjA1Nzc0MiA5LjA4Njc5NCwyMC4xNDQ1MzIgMjAuMTQ0NTMxLDIwLjE0NDUzMiAxMS4wNTc3MzYsMCAyMC4xNDY0ODIsLTkuMDg2OCAyMC4xNDY0ODQsLTIwLjE0NDUzMiAwLC0xMS4wNTc3MzggLTkuMDg4NzQ2LC0yMC4xNDQ1MzEgLTIwLjE0NjQ4NCwtMjAuMTQ0NTMxIHogbSAwLDExLjUgYyA0Ljg0MjY4MywwIDguNjQ2NDg0LDMuODAxODQ4IDguNjQ2NDg0LDguNjQ0NTMxIC0xMGUtNyw0Ljg0MjY4MiAtMy44MDM4MDIsOC42NDQ1MzIgLTguNjQ2NDg0LDguNjQ0NTMyIC00Ljg0MjY4MywwIC04LjY0NDUzLC0zLjgwMTg0OSAtOC42NDQ1MzEsLTguNjQ0NTMyIDAsLTQuODQyNjgzIDMuODAxODQ4LC04LjY0NDUzMSA4LjY0NDUzMSwtOC42NDQ1MzEgeiIgc3R5bGU9ImNvbG9yOiMwMDAwMDA7b3BhY2l0eToxO2ZpbGw6I2FlY2JmYTtmaWxsLW9wYWNpdHk6MTtzdHJva2UtbGluZWNhcDpyb3VuZDstaW5rc2NhcGUtc3Ryb2tlOm5vbmUiLz4mI3hhOzwvc3ZnPg==;" vertex="1" parent="1">
          <mxGeometry x="332" y="191" width="37" height="37" as="geometry" />
        </mxCell>
        <mxCell id="qKVABlJe6BEv9MXxqrbF-16" style="edgeStyle=orthogonalEdgeStyle;rounded=0;orthogonalLoop=1;jettySize=auto;html=1;entryX=0;entryY=0.5;entryDx=0;entryDy=0;" edge="1" parent="1" source="qKVABlJe6BEv9MXxqrbF-11" target="qKVABlJe6BEv9MXxqrbF-4">
          <mxGeometry relative="1" as="geometry">
            <mxPoint x="670" y="300" as="targetPoint" />
          </mxGeometry>
        </mxCell>
        <mxCell id="qKVABlJe6BEv9MXxqrbF-20" style="edgeStyle=orthogonalEdgeStyle;rounded=0;orthogonalLoop=1;jettySize=auto;html=1;entryX=0;entryY=0.5;entryDx=0;entryDy=0;" edge="1" parent="1">
          <mxGeometry relative="1" as="geometry">
            <mxPoint x="527" y="210" as="sourcePoint" />
            <mxPoint x="772" y="280" as="targetPoint" />
            <Array as="points">
              <mxPoint x="672" y="210" />
              <mxPoint x="672" y="280" />
            </Array>
          </mxGeometry>
        </mxCell>
      </root>
    </mxGraphModel>
  </diagram>
</mxfile>
